<?xml version="1.0" encoding="UTF-8"?>
<svg version="1.1" xmlns="http://www.w3.org/2000/svg" width="500" height="500">
<path d="M0 0 C165 0 330 0 500 0 C500 165 500 330 500 500 C335 500 170 500 0 500 C0 335 0 170 0 0 Z " fill="#FEFEFE" transform="translate(0,0)"/>
<path d="M0 0 C1.0621875 0.57492188 2.124375 1.14984375 3.21875 1.7421875 C14.57438505 8.09314834 24.57764113 16.06748854 34 25 C34.94617188 25.88171875 35.89234375 26.7634375 36.8671875 27.671875 C50.05678629 40.21213306 59.83937345 54.79752315 68 71 C68.36609375 71.72413086 68.7321875 72.44826172 69.109375 73.19433594 C75.10832353 85.28460811 79.07437665 97.83529272 82 111 C82.19650146 111.87873779 82.39300293 112.75747559 82.59545898 113.6628418 C84.27557366 122.26063627 84.33837578 130.79737093 84.31567383 139.52416992 C84.31253546 142.034143 84.33597634 144.54290785 84.36132812 147.05273438 C84.42953779 164.40954402 81.83623873 180.64596362 76 197 C75.75797852 197.70447266 75.51595703 198.40894531 75.26660156 199.13476562 C67.59697195 221.30463448 55.08204482 240.02450824 39 257 C38.10796875 257.95648438 37.2159375 258.91296875 36.296875 259.8984375 C8.88456469 288.71328145 -31.86018209 306.06784653 -71.4609375 307.1796875 C-119.54958544 308.01844299 -160.64091579 291.86699045 -195.56860352 258.76806641 C-222.79447703 232.24074856 -241.65979984 191.91211967 -242.19024658 153.72384644 C-242.19449646 153.00802399 -242.19874634 152.29220154 -242.203125 151.5546875 C-242.20882507 150.78174347 -242.21452515 150.00879944 -242.22039795 149.21243286 C-242.22977123 147.58727351 -242.23635103 145.96209581 -242.24023438 144.33691406 C-242.24989552 141.90133921 -242.28097409 139.46662624 -242.3125 137.03125 C-242.38040397 126.93401243 -241.3703905 117.82322624 -239 108 C-238.70088226 106.56844443 -238.4045361 105.13630098 -238.11328125 103.703125 C-233.04512517 81.84824706 -222.57629403 61.73817153 -209 44 C-208.28070313 43.05511719 -207.56140625 42.11023438 -206.8203125 41.13671875 C-181.79205414 9.46176174 -144.0349644 -12.95579123 -103.9453125 -18.5703125 C-102.18735688 -18.82677817 -100.4336055 -19.12604577 -98.69946289 -19.51196289 C-65.81575701 -25.45702286 -28.65115743 -15.93881956 0 0 Z " fill="#DEF7FB" transform="translate(329,70)"/>
<path d="M0 0 C9.30521221 7.55042306 15.5469279 18.27607509 17.5625 30.0625 C19.02717827 45.52641901 15.56069629 57.98588612 5.87890625 70.18359375 C4.37123163 71.95313569 4.37123163 71.95313569 4.5625 74.0625 C5.31273437 74.4028125 6.06296875 74.743125 6.8359375 75.09375 C14.27860049 78.61823524 20.33606318 82.70689351 26.5625 88.0625 C27.17609375 88.53171875 27.7896875 89.0009375 28.421875 89.484375 C43.82879021 101.49894191 53.66622374 123.18341788 56.17578125 142.2421875 C57.37691264 154.10790967 57.37691264 154.10790967 55.3125 159.0625 C52.66451793 162.08876523 50.60899699 162.97206306 46.58549595 163.31976891 C45.41578219 163.32312059 44.24606844 163.32647228 43.04090881 163.32992554 C42.38765057 163.33445665 41.73439232 163.33898776 41.06133837 163.34365618 C38.87423488 163.35630796 36.68738016 163.35467936 34.50024414 163.35302734 C32.93142883 163.35901206 31.36261647 163.36581747 29.79380798 163.37338257 C25.53349868 163.39105407 21.27326971 163.39573839 17.01292729 163.39701414 C13.45668451 163.39891331 9.90046045 163.40627093 6.34422487 163.41335833 C-2.0451846 163.4296437 -10.43455115 163.43452709 -18.82397461 163.43310547 C-27.47981398 163.43190347 -36.13540424 163.45301646 -44.79118055 163.4845928 C-52.22228766 163.51073607 -59.65331329 163.52147361 -67.08446604 163.52019465 C-71.52298747 163.51968451 -75.96128746 163.52539654 -80.39976311 163.54655075 C-84.57361621 163.56590083 -88.74703585 163.56608 -92.92090416 163.55151749 C-94.45235578 163.54942436 -95.9838343 163.55416029 -97.51523972 163.5662384 C-99.60697877 163.58166691 -101.69721861 163.57240121 -103.78892517 163.55697632 C-104.95901595 163.55806585 -106.12910673 163.55915539 -107.33465481 163.56027794 C-111.08780859 162.95817341 -112.7430406 161.69060853 -115.4375 159.0625 C-119.53752322 150.86245355 -116.38743701 136.57023656 -113.69140625 128.42578125 C-113.27761719 127.31589844 -112.86382812 126.20601562 -112.4375 125.0625 C-112.01339844 123.90105469 -111.58929688 122.73960937 -111.15234375 121.54296875 C-102.7819416 100.39546248 -86.36627117 83.14479692 -65.4375 74.0625 C-64.7775 74.0625 -64.1175 74.0625 -63.4375 74.0625 C-64.02917969 73.34707031 -64.62085938 72.63164062 -65.23046875 71.89453125 C-75.28190898 59.21955034 -79.64129402 46.33091632 -78.4375 30.0625 C-75.8522153 17.32296454 -68.45067527 5.51055118 -57.6796875 -1.8125 C-38.90876387 -13.33429456 -18.12789754 -12.65827329 0 0 Z " fill="#293C60" transform="translate(280.4375,136.9375)"/>
<path d="M0 0 C1.0621875 0.57492188 2.124375 1.14984375 3.21875 1.7421875 C14.57438505 8.09314834 24.57764113 16.06748854 34 25 C34.94617188 25.88171875 35.89234375 26.7634375 36.8671875 27.671875 C50.05678629 40.21213306 59.83937345 54.79752315 68 71 C68.36609375 71.72413086 68.7321875 72.44826172 69.109375 73.19433594 C75.10832353 85.28460811 79.07437665 97.83529272 82 111 C82.19650146 111.87873779 82.39300293 112.75747559 82.59545898 113.6628418 C84.27557366 122.26063627 84.33837578 130.79737093 84.31567383 139.52416992 C84.31253546 142.034143 84.33597634 144.54290785 84.36132812 147.05273438 C84.42953779 164.40954402 81.83623873 180.64596362 76 197 C75.75797852 197.70447266 75.51595703 198.40894531 75.26660156 199.13476562 C67.59697195 221.30463448 55.08204482 240.02450824 39 257 C38.10796875 257.95648438 37.2159375 258.91296875 36.296875 259.8984375 C8.88456469 288.71328145 -31.86018209 306.06784653 -71.4609375 307.1796875 C-119.54958544 308.01844299 -160.64091579 291.86699045 -195.56860352 258.76806641 C-222.79447703 232.24074856 -241.65979984 191.91211967 -242.19024658 153.72384644 C-242.19449646 153.00802399 -242.19874634 152.29220154 -242.203125 151.5546875 C-242.20882507 150.78174347 -242.21452515 150.00879944 -242.22039795 149.21243286 C-242.22977123 147.58727351 -242.23635103 145.96209581 -242.24023438 144.33691406 C-242.24989552 141.90133921 -242.28097409 139.46662624 -242.3125 137.03125 C-242.38040397 126.93401243 -241.3703905 117.82322624 -239 108 C-238.70088226 106.56844443 -238.4045361 105.13630098 -238.11328125 103.703125 C-233.04512517 81.84824706 -222.57629403 61.73817153 -209 44 C-208.28070313 43.05511719 -207.56140625 42.11023438 -206.8203125 41.13671875 C-181.79205414 9.46176174 -144.0349644 -12.95579123 -103.9453125 -18.5703125 C-102.18735688 -18.82677817 -100.4336055 -19.12604577 -98.69946289 -19.51196289 C-65.81575701 -25.45702286 -28.65115743 -15.93881956 0 0 Z M-189.78515625 50.2890625 C-203.22066189 66.73393183 -212.58683391 85.37034532 -218.75 105.625 C-218.94883789 106.26880615 -219.14767578 106.9126123 -219.35253906 107.57592773 C-222.64434281 118.9264397 -223.44779273 130.48203948 -223.4375 142.25 C-223.43723816 142.94320343 -223.43697632 143.63640686 -223.43670654 144.35061646 C-223.26179753 183.84112301 -207.0805227 219.46780398 -179.53515625 247.48779297 C-153.95287821 272.68763873 -117.29004068 288.32992239 -81.3125 288.125 C-80.42256348 288.12016602 -79.53262695 288.11533203 -78.61572266 288.11035156 C-37.20182186 287.73338178 -1.30840737 270.27011274 27.68359375 241.3203125 C43.40186426 224.79283306 53.90169965 204.22485593 60.26855469 182.48144531 C60.72107217 180.94626917 61.18990004 179.41567136 61.68457031 177.89355469 C68.68683395 156.2629062 67.35355085 127.64835704 61 106 C60.82339844 105.35482422 60.64679688 104.70964844 60.46484375 104.04492188 C50.16639749 66.85608815 24.27582799 35.89055318 -9 17 C-69.51511156 -16.84743528 -144.53154605 -1.40662578 -189.78515625 50.2890625 Z " fill="#2B3D60" transform="translate(329,70)"/>
<path d="M0 0 C0.99515625 0.3403125 1.9903125 0.680625 3.015625 1.03125 C22.13513036 8.28685716 34.37816287 22.87013081 42.95703125 40.90625 C44.49239303 45.46058158 45.14024614 50.27135376 46 55 C36.76 55 27.52 55 18 55 C17.505 49.06 17.505 49.06 17 43 C14.67748574 38.11504475 14.67748574 38.11504475 12 37 C7.95028325 36.59296188 7.95028325 36.59296188 4 37 C-1.58694707 41.71370636 -1.58694707 41.71370636 -1 55 C-13.87 55 -26.74 55 -40 55 C-40.33 50.71 -40.66 46.42 -41 42 C-44.20138948 36.94027378 -44.20138948 36.94027378 -47.25390625 36.4765625 C-48.01574219 36.52554688 -48.77757812 36.57453125 -49.5625 36.625 C-50.32691406 36.65851563 -51.09132812 36.69203125 -51.87890625 36.7265625 C-54.18457109 36.95466919 -54.18457109 36.95466919 -57 38 C-58.15570704 41.46712111 -58.32835293 44.5414956 -58.5625 48.1875 C-58.706875 50.435625 -58.85125 52.68375 -59 55 C-68.24 55 -77.48 55 -87 55 C-87 40.34853967 -78.67113392 26.74376537 -68.8125 16.1875 C-50.48737344 -0.83774734 -24.08449672 -8.2499381 0 0 Z " fill="#00DEF5" transform="translate(271,226)"/>
<path d="M0 0 C7.41612588 3.37729676 13.58983063 9.54657317 16.93359375 17.01171875 C19.27575443 24.6964551 18.96467551 32.96086638 15.25 40.10546875 C10.1939528 48.14713432 4.10786393 53.0622021 -5.0859375 55.80078125 C-14.3240001 57.65932639 -21.26939402 55.34590665 -29.06640625 50.19921875 C-35.31483223 44.94919476 -39.21137583 37.97067406 -40.41015625 29.87890625 C-40.75500131 21.63136197 -37.98681776 14.46575331 -32.88671875 8.05859375 C-23.88452614 -1.13677896 -12.2645464 -3.20284333 0 0 Z " fill="#0E5283" transform="translate(261.06640625,147.80078125)"/>
<path d="M0 0 C2.31 0 4.62 0 7 0 C7 13.2 7 26.4 7 40 C4.69 40 2.38 40 0 40 C-0.33 39.01 -0.66 38.02 -1 37 C-1.39445312 37.4846875 -1.78890625 37.969375 -2.1953125 38.46875 C-5.10738778 40.93960175 -7.87123003 40.52926443 -11.5546875 40.421875 C-15.29725277 39.77619281 -16.81617134 38.0027644 -19 35 C-21.68551727 30.46403797 -21.52065348 26.14145308 -21 21 C-19.35830192 16.33412124 -17.3076205 13.4888474 -13 11 C-10.08771398 10.48367837 -8.02442452 10.66395283 -5 11 C-3.68 11.99 -2.36 12.98 -1 14 C-0.67 9.38 -0.34 4.76 0 0 Z " fill="#2D3F62" transform="translate(169,388)"/>
<path d="M0 0 C2.64 0 5.28 0 8 0 C8.33 0.66 8.66 1.32 9 2 C9.99 1.34 10.98 0.68 12 0 C17.4266032 -0.43762929 20.50814656 -0.36889008 25 3 C25.495 2.505 25.99 2.01 26.5 1.5 C29.32818956 -0.19691373 31.63377489 -0.43779443 34.90234375 -0.59375 C38.57241714 0.44507897 39.80659526 1.86494392 42 5 C42.61444146 9.12072803 42.47032283 13.15811758 42.3125 17.3125 C42.28994141 18.43462891 42.26738281 19.55675781 42.24414062 20.71289062 C42.18533776 23.47662536 42.10320401 26.23762554 42 29 C39.69 29 37.38 29 35 29 C34.97494385 28.36908447 34.9498877 27.73816895 34.92407227 27.08813477 C34.80845863 24.24603175 34.68557684 21.40428917 34.5625 18.5625 C34.52318359 17.56927734 34.48386719 16.57605469 34.44335938 15.55273438 C34.40146484 14.60849609 34.35957031 13.66425781 34.31640625 12.69140625 C34.26141968 11.37958374 34.26141968 11.37958374 34.20532227 10.04125977 C34.21818934 8.0072598 34.21818934 8.0072598 33 7 C30.54190002 6.7499227 30.54190002 6.7499227 28 7 C25.56085508 9.43914492 25.71337477 10.21446431 25.5859375 13.5703125 C25.54726562 14.46621094 25.50859375 15.36210937 25.46875 16.28515625 C25.42234375 17.69087891 25.42234375 17.69087891 25.375 19.125 C25.33632812 20.06988281 25.29765625 21.01476562 25.2578125 21.98828125 C25.16338654 24.32532375 25.07781606 26.66235501 25 29 C22.69 29 20.38 29 18 29 C17.97494385 28.36908447 17.9498877 27.73816895 17.92407227 27.08813477 C17.80845863 24.24603175 17.68557684 21.40428917 17.5625 18.5625 C17.52318359 17.56927734 17.48386719 16.57605469 17.44335938 15.55273438 C17.40146484 14.60849609 17.35957031 13.66425781 17.31640625 12.69140625 C17.27974854 11.81685791 17.24309082 10.94230957 17.20532227 10.04125977 C17.21818934 8.0072598 17.21818934 8.0072598 16 7 C13.69 7 11.38 7 9 7 C8.67 14.26 8.34 21.52 8 29 C5.36 29 2.72 29 0 29 C0 19.43 0 9.86 0 0 Z " fill="#324365" transform="translate(184,399)"/>
<path d="M0 0 C3.3 0 6.6 0 10 0 C13.39788232 7.31012298 16.13026547 14.75472985 18.75 22.375 C19.16121094 23.54933594 19.57242188 24.72367187 19.99609375 25.93359375 C20.38410156 27.05636719 20.77210938 28.17914063 21.171875 29.3359375 C21.6992627 30.86033447 21.6992627 30.86033447 22.23730469 32.41552734 C23 35 23 35 23 38 C20.36 38 17.72 38 15 38 C14.34 35.03 13.68 32.06 13 29 C8.05 29.33 3.1 29.66 -2 30 C-2.99 32.64 -3.98 35.28 -5 38 C-7.64 38 -10.28 38 -13 38 C-11.3112383 32.90903095 -9.62052299 27.81871658 -7.92797852 22.72900391 C-7.35224263 20.9967616 -6.77704491 19.26434034 -6.20239258 17.53173828 C-5.37722283 15.04412561 -4.55013196 12.55715892 -3.72265625 10.0703125 C-3.46533218 9.29317902 -3.20800812 8.51604553 -2.94288635 7.71536255 C-1.11387171 2.22774341 -1.11387171 2.22774341 0 0 Z " fill="#304164" transform="translate(122,390)"/>
<path d="M0 0 C4.80419797 1.71578499 5.66779645 2.3355929 8 7 C8 9.97 8 12.94 8 16 C1.73 16 -4.54 16 -11 16 C-10.01 17.98 -9.02 19.96 -8 22 C-3.9899066 22.17864631 -3.9899066 22.17864631 0 22 C0.66 21.34 1.32 20.68 2 20 C4.26274788 20.35355436 5.95088852 20.97544426 8 22 C6.59222443 25.4021243 5.14159195 27.07745313 2 29 C-2.8498984 29.88242157 -7.85851848 30.12155558 -12.3046875 27.79296875 C-16.43336367 24.40951006 -17.70630764 21.91766505 -18.23828125 16.6328125 C-18.40898739 10.86474192 -17.96466326 7.51531093 -14 3 C-9.62044909 -0.90432304 -5.62656547 -0.65672846 0 0 Z " fill="#2E4063" transform="translate(381,399)"/>
<path d="M0 0 C2.64 0 5.28 0 8 0 C8.33 0.66 8.66 1.32 9 2 C9.99 1.34 10.98 0.68 12 0 C14.0859375 -0.37109375 14.0859375 -0.37109375 16.375 -0.4375 C17.12523437 -0.47746094 17.87546875 -0.51742188 18.6484375 -0.55859375 C22.5191701 0.36086599 23.73928587 1.71384812 26 5 C26.61108157 9.12139732 26.47033273 13.15785684 26.3125 17.3125 C26.28994141 18.43462891 26.26738281 19.55675781 26.24414062 20.71289062 C26.18533776 23.47662536 26.10320401 26.23762554 26 29 C23.69 29 21.38 29 19 29 C18.97494385 28.36908447 18.9498877 27.73816895 18.92407227 27.08813477 C18.80845863 24.24603175 18.68557684 21.40428917 18.5625 18.5625 C18.52318359 17.56927734 18.48386719 16.57605469 18.44335938 15.55273438 C18.40146484 14.60849609 18.35957031 13.66425781 18.31640625 12.69140625 C18.27974854 11.81685791 18.24309082 10.94230957 18.20532227 10.04125977 C18.21818934 8.0072598 18.21818934 8.0072598 17 7 C14.04182893 6.74994614 14.04182893 6.74994614 11 7 C8.56085508 9.43914492 8.71337477 10.21446431 8.5859375 13.5703125 C8.52792969 14.91416016 8.52792969 14.91416016 8.46875 16.28515625 C8.42234375 17.69087891 8.42234375 17.69087891 8.375 19.125 C8.31699219 20.54232422 8.31699219 20.54232422 8.2578125 21.98828125 C8.16338654 24.32532375 8.07781606 26.66235501 8 29 C5.36 29 2.72 29 0 29 C0 19.43 0 9.86 0 0 Z " fill="#354668" transform="translate(249,399)"/>
<path d="M0 0 C2.64 0 5.28 0 8 0 C8 10.56 8 21.12 8 32 C13.61 32 19.22 32 25 32 C25 33.98 25 35.96 25 38 C16.75 38 8.5 38 0 38 C0 25.46 0 12.92 0 0 Z " fill="#324366" transform="translate(296,390)"/>
<path d="M0 0 C2.31 0 4.62 0 7 0 C7 1.98 7 3.96 7 6 C9.64 6 12.28 6 15 6 C15 7.98 15 9.96 15 12 C12.36 12 9.72 12 7 12 C7.33 16.95 7.66 21.9 8 27 C12.47702364 28.06537205 12.47702364 28.06537205 15 28 C15.38133299 29.9914056 15.71325582 31.99279077 16 34 C14.27152533 35.72847467 12.0426665 35.29389493 9.6875 35.375 C8.72199219 35.42398438 7.75648438 35.47296875 6.76171875 35.5234375 C4 35 4 35 1.66015625 33.05859375 C-0.62982593 28.83963834 -0.44342487 25.40037138 -0.25 20.6875 C-0.23195313 19.85154297 -0.21390625 19.01558594 -0.1953125 18.15429688 C-0.14841126 16.10236772 -0.07667411 14.05103244 0 12 C-1.32 12 -2.64 12 -4 12 C-4 10.02 -4 8.04 -4 6 C-2.68 6 -1.36 6 0 6 C0 4.02 0 2.04 0 0 Z " fill="#2E4063" transform="translate(343,393)"/>
<path d="M0 0 C2.64 0 5.28 0 8 0 C8 9.57 8 19.14 8 29 C5.36 29 2.72 29 0 29 C0 19.43 0 9.86 0 0 Z " fill="#3F4F6F" transform="translate(326,399)"/>
<path d="M0 0 C2.31 0 4.62 0 7 0 C7 9.57 7 19.14 7 29 C4.69 29 2.38 29 0 29 C0 19.43 0 9.86 0 0 Z " fill="#2B3C60" transform="translate(234,399)"/>
<path d="M0 0 C2.375 1.4375 2.375 1.4375 4 4 C4.67298561 8.12109164 4.54130175 11.69450754 2.9375 15.5625 C-0.09377511 17.81151056 -2.35057669 17.52134619 -6 17 C-8.10470141 14.87105088 -8.92034045 13.4943578 -9.3984375 10.52734375 C-9.39070312 9.67269531 -9.38296875 8.81804687 -9.375 7.9375 C-9.38273438 7.08027344 -9.39046875 6.22304688 -9.3984375 5.33984375 C-8.47884924 -0.06048341 -4.96333955 -0.70904851 0 0 Z " fill="#F7F7F9" transform="translate(165,405)"/>
<path d="M0 0 C0.66 0 1.32 0 2 0 C2.67220351 1.93558599 3.33758077 3.87354372 4 5.8125 C4.556875 7.43091797 4.556875 7.43091797 5.125 9.08203125 C6 12 6 12 6 15 C2.7 15 -0.6 15 -4 15 C-3.25130208 12.55859375 -2.50260417 10.1171875 -1.75390625 7.67578125 C-1.03655471 5.12974079 -0.482459 2.5996577 0 0 Z " fill="#EEEFF2" transform="translate(126,398)"/>
<path d="M0 0 C3.625 0.375 3.625 0.375 7 1 C7.33 2.98 7.66 4.96 8 7 C4.04 7 0.08 7 -4 7 C-2 2 -2 2 0 0 Z " fill="#E2E4E9" transform="translate(374,404)"/>
<path d="M0 0 C0.763125 0.20625 1.52625 0.4125 2.3125 0.625 C2.9375 3.5 2.9375 3.5 3.3125 6.625 C1.3125 8.625 1.3125 8.625 -1.1875 8.875 C-3.6875 8.625 -3.6875 8.625 -5.6875 6.625 C-6 4.125 -6 4.125 -5.6875 1.625 C-2.6875 -0.375 -2.6875 -0.375 0 0 Z " fill="#405070" transform="translate(238.6875,387.375)"/>
<path d="M0 0 C4.55555556 0.55555556 4.55555556 0.55555556 6 2 C6.1875 4.4375 6.1875 4.4375 6 7 C5.34 7.66 4.68 8.32 4 9 C-0.55555556 8.44444444 -0.55555556 8.44444444 -2 7 C-2.1875 4.5625 -2.1875 4.5625 -2 2 C-1.34 1.34 -0.68 0.68 0 0 Z " fill="#364769" transform="translate(328,387)"/>
</svg>
